<mxfile host="app.diagrams.net" modified="2024-09-22T04:04:00.716Z" agent="Mozilla/5.0 (Windows NT 10.0; Win64; x64) AppleWebKit/537.36 (KHTML, like Gecko) Chrome/129.0.0.0 Safari/537.36 Edg/129.0.0.0" version="24.5.5" etag="rD33NB5cS0FGN6PN3zBI" type="github">
  <diagram name="第 1 页" id="FAz4F5U1iKyDSFouW0l1">
    <mxGraphModel>
      <root>
        <mxCell id="0" />
        <mxCell id="1" parent="0" />
      </root>
    </mxGraphModel>
  </diagram>
</mxfile>
